<?xml version="1.0" standalone="no"?>
<!DOCTYPE svg PUBLIC "-//W3C//DTD SVG 20010904//EN"
 "http://www.w3.org/TR/2001/REC-SVG-20010904/DTD/svg10.dtd">
<svg version="1.0" xmlns="http://www.w3.org/2000/svg"
 width="1080.000000pt" height="1080.000000pt" viewBox="0 0 1080.000000 1080.000000"
 preserveAspectRatio="xMidYMid meet">

<g transform="translate(0.000000,1080.000000) scale(0.100000,-0.100000)"
fill="#000000" stroke="none">
<path d="M3390 6856 l0 -1613 107 -7 c218 -14 488 -73 698 -151 51 -19 96 -35
99 -35 3 0 6 770 6 1710 l0 1710 -455 0 -455 0 0 -1614z"/>
<path d="M4680 6656 l0 -1814 80 -56 c183 -129 370 -303 508 -475 84 -104 165
-184 262 -261 l55 -43 3 522 c1 286 6 521 10 521 4 0 248 -241 542 -535 l535
-535 585 0 585 0 -700 700 -700 700 635 635 635 635 -590 0 -590 0 -465 -465
c-256 -256 -468 -465 -472 -465 -5 0 -8 619 -8 1375 l0 1375 -455 0 -455 0 0
-1814z"/>
<path d="M7660 5967 c-76 -26 -76 -98 0 -137 50 -26 55 -54 8 -48 -18 3 -41 8
-50 13 -15 6 -18 2 -18 -23 0 -32 17 -42 78 -42 24 0 42 9 63 29 46 47 36 86
-31 116 -46 21 -53 53 -10 47 14 -2 32 -5 40 -5 9 -1 16 8 18 26 3 21 -1 27
-17 27 -10 0 -25 2 -33 4 -7 3 -29 0 -48 -7z"/>
<path d="M7350 5850 l0 -120 80 0 80 0 0 29 c0 28 -1 28 -50 23 -49 -4 -50 -4
-50 22 0 24 3 26 40 26 36 0 40 3 40 25 0 23 -4 25 -40 25 -33 0 -40 3 -40 19
0 17 8 20 53 23 45 3 52 6 55 26 3 21 1 22 -82 22 l-86 0 0 -120z"/>
<path d="M7850 5945 c0 -21 5 -25 30 -25 l30 0 0 -95 0 -95 30 0 30 0 0 95 0
95 30 0 c25 0 30 4 30 25 0 25 -1 25 -90 25 -89 0 -90 0 -90 -25z"/>
<path d="M8123 5793 c-18 -7 -16 -52 3 -60 23 -9 51 23 38 44 -12 19 -23 24
-41 16z"/>
<path d="M7358 5603 c-11 -3 -18 -14 -18 -29 0 -23 3 -24 34 -19 51 10 54 -10
7 -53 -25 -22 -41 -46 -41 -60 0 -21 4 -22 75 -22 73 0 75 1 75 25 0 22 -4 25
-36 25 l-36 0 26 31 c36 43 44 79 21 96 -18 12 -71 16 -107 6z"/>
<path d="M7605 5585 c-19 -18 -25 -35 -25 -70 0 -75 51 -112 113 -84 55 25 64
138 13 171 -24 17 -77 8 -101 -17z m85 -70 c0 -32 -2 -35 -30 -35 -28 0 -30 3
-30 35 0 32 2 35 30 35 28 0 30 -3 30 -35z"/>
<path d="M7847 5598 c-11 -9 -15 -21 -11 -35 5 -18 10 -21 24 -13 27 14 50 12
50 -4 0 -7 -18 -30 -40 -50 -22 -20 -40 -45 -40 -56 0 -18 7 -20 75 -20 41 0
75 4 75 9 0 5 3 16 6 25 5 13 -1 16 -30 16 -42 0 -45 8 -12 39 53 49 33 101
-38 101 -23 0 -50 -6 -59 -12z"/>
<path d="M8103 5588 c-30 -33 -37 -79 -19 -122 24 -57 98 -62 133 -9 23 35 22
106 -2 133 -26 28 -85 27 -112 -2z m82 -73 c0 -27 -3 -30 -30 -30 -21 0 -31 5
-33 18 -6 33 6 49 35 45 24 -3 28 -8 28 -33z"/>
<path d="M3428 4934 c-70 -38 -63 -133 11 -164 34 -14 85 -6 78 13 -2 7 -17
11 -35 9 -61 -6 -95 65 -51 109 16 16 28 19 54 15 38 -8 55 8 26 23 -26 15
-51 13 -83 -5z"/>
<path d="M3639 4918 c0 -7 -6 -48 -13 -90 -12 -73 -11 -78 6 -78 12 0 18 7 18
23 0 12 5 39 10 59 8 29 18 40 45 49 19 7 35 19 35 27 0 11 -8 9 -34 -6 l-35
-21 -3 21 c-3 24 -28 37 -29 16z"/>
<path d="M3819 4851 c-19 -19 -29 -40 -29 -59 0 -54 66 -111 112 -96 27 8 17
28 -17 31 -28 2 -64 28 -53 38 3 3 35 8 72 12 72 6 77 13 51 62 -26 52 -91 57
-136 12z m101 -16 c16 -20 14 -21 -42 -28 -38 -5 -48 -4 -48 8 0 32 68 47 90
20z"/>
<path d="M4405 4760 c-23 -45 -28 -50 -50 -44 -29 7 -34 -12 -9 -31 15 -10 13
-18 -16 -74 -22 -45 -28 -67 -21 -74 13 -13 12 -15 50 61 28 56 35 63 55 58
32 -8 41 5 15 24 l-21 17 26 50 c23 47 25 63 5 63 -5 0 -20 -23 -34 -50z"/>
<path d="M4069 4771 c-33 -34 -38 -74 -13 -110 18 -25 79 -55 95 -46 5 4 17
-1 26 -10 15 -16 18 -11 48 67 21 55 28 85 21 90 -6 4 -13 3 -14 -2 -2 -6 -17
1 -34 15 -42 35 -91 34 -129 -4z m113 -18 c41 -37 10 -103 -48 -103 -34 0 -64
28 -64 60 0 9 7 26 16 38 18 27 69 30 96 5z"/>
<path d="M4550 4690 c0 -15 5 -20 18 -18 9 2 17 10 17 18 0 8 -8 16 -17 18
-13 2 -18 -3 -18 -18z"/>
<path d="M4470 4553 c-31 -54 -39 -78 -31 -86 6 -6 12 -9 14 -6 6 7 87 151 87
154 0 1 -6 5 -14 8 -8 3 -28 -21 -56 -70z"/>
<path d="M4627 4513 c-3 -26 -9 -74 -13 -106 l-6 -58 92 46 c67 34 89 50 82
57 -8 8 -29 3 -74 -20 -34 -17 -63 -30 -64 -29 -2 1 1 31 6 67 6 48 4 69 -5
78 -10 11 -13 4 -18 -35z"/>
<path d="M4799 4334 c-35 -37 -33 -98 4 -130 16 -13 35 -24 43 -24 21 0 17 27
-6 33 -19 5 -48 52 -38 62 3 3 34 -6 70 -19 36 -14 68 -22 72 -19 3 4 6 23 6
44 0 29 -6 42 -26 58 -38 30 -94 28 -125 -5z m109 -16 c7 -7 12 -20 12 -30 0
-16 -3 -16 -41 -3 -52 19 -61 24 -54 36 9 13 69 11 83 -3z"/>
<path d="M5095 4051 c-66 -27 -79 -105 -27 -152 18 -16 39 -29 47 -29 8 0 15
-7 15 -15 0 -27 18 -16 69 43 50 57 61 79 36 74 -7 -1 -16 9 -19 23 -7 26 -59
65 -86 64 -8 0 -24 -4 -35 -8z m73 -37 c45 -31 19 -114 -36 -114 -36 0 -62 27
-62 66 0 34 28 64 60 64 9 0 26 -7 38 -16z"/>
<path d="M5313 3875 c-81 -35 -65 -155 24 -173 l33 -7 -26 -32 c-33 -42 -73
-44 -108 -6 -17 18 -29 24 -36 17 -15 -15 16 -53 55 -70 59 -24 86 -6 159 109
59 91 76 136 41 107 -10 -8 -15 -6 -20 10 -13 42 -75 65 -122 45z m90 -48 c33
-38 2 -97 -52 -97 -33 0 -61 27 -61 60 0 65 69 88 113 37z"/>
<path d="M5564 3750 c-28 -11 -64 -58 -64 -82 0 -28 27 -76 49 -88 26 -14 74
-13 69 1 -2 7 -19 17 -38 23 -19 6 -36 19 -38 29 -3 15 5 17 67 17 69 0 71 1
71 24 0 52 -68 96 -116 76z m74 -43 c24 -19 11 -27 -44 -27 -59 0 -69 14 -24
37 23 11 44 8 68 -10z"/>
<path d="M5764 3596 c-17 -68 -18 -86 -8 -90 16 -6 20 -1 29 44 12 61 30 80
76 80 51 0 57 -15 37 -96 -14 -60 -14 -64 2 -64 12 0 20 14 29 53 6 28 14 62
17 74 13 49 -65 82 -114 47 -21 -14 -22 -14 -22 10 0 15 -6 26 -13 26 -8 0
-21 -33 -33 -84z"/>
<path d="M6039 3591 c-65 -65 -7 -171 83 -154 38 7 25 33 -17 33 -58 0 -87 67
-45 105 14 13 29 16 55 12 36 -6 58 9 34 24 -30 19 -80 10 -110 -20z"/>
<path d="M6419 3610 c-9 -5 -30 -41 -49 -81 l-33 -71 -40 76 c-23 42 -47 76
-54 76 -19 0 -18 -3 33 -97 l47 -85 -22 -52 c-12 -28 -25 -57 -28 -63 -3 -7 1
-13 9 -13 8 0 43 63 86 157 40 86 71 158 69 159 -1 1 -9 -1 -18 -6z"/>
</g>
</svg>
